# xmcd
#
# Track frame offsets:
#	150
#	13347
#	28671
#	40360
#	53020
#	66976
#	79331
#	92065
#	104456
#	117844
#	131646
#	145220
#	159366
#	174760
#	188407
#	199655
#	213432
#	226569
#	240714
#	252115
#	264205
#	278800
#	291305
#	303044
#	314761
#	325947
#	338918
#
# Disc length: 4679 seconds
#
# Revision: 1
# Processed by: cddbd v1.5.2PL0 Copyright (c) Steve Scherf et al.
# Submitted via: EZCDAudioConverter 7.0.6.1
#
DISCID=7c12451b
DTITLE=Various Artist - Down Home Blues: Chicago 4/5
DYEAR=1900
DGENRE=Blues
TTITLE0=Sonny Boy Williamson - Work With Me
TTITLE1=Sonny Boy Williamson - You Killing Me
TTITLE2=Sonny Boy Williamson - Don't Start Me Talkin'
TTITLE3=John Brim - Ice Cream Man
TTITLE4=John Brim - Life Time Baby
TTITLE5=Lazy Bill - My Baby's Gone
TTITLE6=Lazy Bill - I Can't Sleep, I Can't Eat
TTITLE7=Albert King - Little Boy Blue
TTITLE8=Albert King - Sweet Woman
TTITLE9=Sunnyland Slim - Trouble Of My Own
TTITLE10=Sunnyland Slim - Worried About My Baby
TTITLE11=Henry Gray - I Declare That Ain't Right
TTITLE12=Henry Gray - Matchbox Blues
TTITLE13=J.B. Hutto - Price Of Love
TTITLE14=Big Boy Spires - Tired Of Being Mistreated
TTITLE15=Sunnyland Slim - I Done You Wrong
TTITLE16=Sunnyland Slim - Be My Baby
TTITLE17=Little Walter - Got To Find My Baby [Alternate Take]
TTITLE18=J.B. Lenoir - Eisenhower Blues [Alternate Take]
TTITLE19=Dusty Brown - Yes She's Done
TTITLE20=Dusty Brown - He Don't Love You
TTITLE21=Dusty Brown - Rusty Dusty
TTITLE22=Jimmy Rogers - You're The One
TTITLE23=Billy Boy Arnold - Sweet On You Baby
TTITLE24=Billy Boy Arnold - You Got To Love Me
TTITLE25=Jimmy Reed - You Upset My Mind
TTITLE26=Jimmy Reed - Come On Baby
EXTD=
EXTT0=
EXTT1=
EXTT2=
EXTT3=
EXTT4=
EXTT5=
EXTT6=
EXTT7=
EXTT8=
EXTT9=
EXTT10=
EXTT11=
EXTT12=
EXTT13=
EXTT14=
EXTT15=
EXTT16=
EXTT17=
EXTT18=
EXTT19=
EXTT20=
EXTT21=
EXTT22=
EXTT23=
EXTT24=
EXTT25=
EXTT26=
PLAYORDER=
